<?xml version="1.0" standalone="no"?>
<!DOCTYPE svg PUBLIC "-//W3C//DTD SVG 20010904//EN"
 "http://www.w3.org/TR/2001/REC-SVG-20010904/DTD/svg10.dtd">
<svg version="1.0" xmlns="http://www.w3.org/2000/svg"
 width="500.000000pt" height="500.000000pt" viewBox="0 0 500.000000 500.000000"
 preserveAspectRatio="xMidYMid meet">

<g transform="translate(0.000000,500.000000) scale(0.100000,-0.100000)"
fill="#000000" stroke="none">
<path d="M2422 3704 c-98 -49 -160 -164 -187 -351 l-7 -43 -99 0 c-141 0 -137
5 -173 -230 -15 -102 -30 -193 -33 -202 -4 -16 6 -18 101 -18 57 0 140 5 182
11 99 14 283 66 399 114 163 67 415 226 415 261 0 8 -11 26 -25 39 -22 23 -31
25 -123 25 -108 0 -112 2 -112 59 0 73 -52 207 -109 278 -30 38 -112 83 -151
83 -14 0 -49 -12 -78 -26z m126 -48 c77 -41 137 -155 157 -298 l6 -48 -212 0
-211 0 6 48 c19 134 71 242 139 286 46 29 76 32 115 12z"/>
<path d="M2999 2942 c-45 -98 -47 -99 -140 -169 -52 -39 -105 -80 -119 -91
-14 -11 -60 -48 -103 -82 l-79 -62 68 -44 c37 -25 74 -42 81 -40 39 15 247
336 309 477 51 117 37 127 -17 11z"/>
<path d="M2420 2433 c-19 -15 -39 -33 -43 -40 -4 -7 -13 -13 -18 -13 -8 0 -97
-67 -119 -90 -3 -3 -57 -45 -120 -93 -63 -48 -142 -109 -175 -137 -33 -27 -72
-57 -87 -67 -36 -23 -35 -35 6 -71 28 -25 47 -32 101 -37 71 -8 752 2 766 11
17 10 9 60 -17 97 l-26 38 -57 -60 c-31 -34 -64 -61 -73 -61 -19 0 -30 46 -48
200 -7 52 -14 101 -16 108 -2 8 -28 -6 -72 -42 -86 -68 -181 -130 -293 -190
-92 -49 -135 -63 -59 -20 130 75 173 102 261 161 53 35 111 76 129 91 l33 28
-13 89 c-19 131 -18 130 -60 98z"/>
<path d="M3077 2305 c-59 -40 -66 -48 -55 -64 19 -30 4 -45 -70 -69 -39 -13
-74 -27 -76 -31 -3 -5 7 -28 23 -52 15 -24 43 -68 61 -98 38 -60 83 -86 132
-76 44 10 96 61 104 100 6 33 -32 313 -45 327 -4 4 -37 -13 -74 -37z"/>
<path d="M1924 1736 c-10 -26 4 -48 28 -44 17 2 23 10 23 28 0 18 -6 26 -23
28 -13 2 -25 -3 -28 -12z"/>
<path d="M2600 1740 c-46 -11 -70 -43 -70 -92 0 -51 31 -82 90 -92 55 -9 70
-21 70 -57 0 -48 -65 -67 -97 -29 -10 11 -29 20 -44 20 -23 0 -26 -3 -21 -26
15 -78 183 -85 212 -8 31 80 -3 136 -88 148 -36 5 -55 12 -62 26 -13 25 1 56
30 65 21 7 60 -10 60 -25 0 -6 14 -10 30 -10 20 0 30 5 30 15 0 20 -44 65 -64
65 -8 0 -20 2 -28 4 -7 2 -29 0 -48 -4z"/>
<path d="M1529 1721 c-22 -18 -24 -28 -27 -128 -2 -61 1 -120 7 -136 15 -38
71 -61 127 -52 54 8 82 31 90 73 6 30 5 32 -24 32 -24 0 -31 -5 -34 -22 -4
-30 -48 -46 -83 -30 -26 12 -26 12 -23 119 l3 108 29 3 c45 5 76 -6 76 -28 0
-16 7 -20 30 -20 34 0 38 15 15 59 -18 36 -32 41 -105 41 -42 0 -64 -5 -81
-19z"/>
<path d="M1780 1611 c0 -150 9 -185 52 -200 40 -14 38 -15 38 18 0 16 -6 31
-15 35 -12 4 -15 30 -15 141 l0 135 -30 0 -30 0 0 -129z"/>
<path d="M2290 1570 l0 -170 25 0 c24 0 25 3 25 60 0 78 14 77 62 0 33 -53 41
-60 69 -60 l31 0 -18 28 c-10 15 -31 48 -47 74 l-29 46 23 34 c13 18 32 43 43
56 l19 22 -34 0 c-29 0 -38 -6 -64 -45 -45 -67 -55 -60 -55 40 0 84 0 85 -25
85 l-25 0 0 -170z"/>
<path d="M2800 1570 l0 -170 25 0 c25 0 25 1 25 90 0 76 3 93 19 109 24 24 57
17 65 -12 3 -12 6 -59 6 -104 0 -82 0 -83 25 -83 l25 0 0 109 c0 90 -3 113
-18 131 -19 24 -60 30 -99 17 -22 -8 -23 -6 -23 37 0 42 -2 46 -25 46 l-25 0
0 -170z"/>
<path d="M3378 1656 c-16 -8 -28 -11 -28 -5 0 5 -11 9 -25 9 l-25 0 0 -171 0
-170 28 3 c25 3 27 7 30 49 l3 47 28 -11 c39 -14 86 6 101 44 19 45 9 165 -15
188 -28 28 -65 34 -97 17z m46 -49 c14 -10 16 -25 14 -76 -3 -71 -22 -96 -55
-75 -26 16 -31 133 -7 151 10 7 21 13 24 13 3 0 14 -6 24 -13z"/>
<path d="M1920 1530 l0 -130 30 0 30 0 0 130 0 130 -30 0 -30 0 0 -130z"/>
<path d="M2061 1634 c-17 -22 -21 -41 -21 -106 0 -70 3 -82 25 -103 49 -50
151 -24 170 43 6 19 3 22 -23 22 -21 0 -31 -6 -35 -20 -8 -32 -65 -28 -77 6
-17 43 -12 102 9 123 23 23 61 17 68 -11 4 -12 15 -18 34 -18 27 0 29 2 23 28
-10 44 -39 62 -99 62 -46 0 -57 -4 -74 -26z"/>
<path d="M3072 1640 c-19 -18 -22 -31 -22 -110 0 -84 1 -90 26 -109 39 -31
107 -29 139 4 23 22 25 32 25 108 0 74 -3 86 -23 105 -32 30 -114 31 -145 2z
m108 -51 c13 -23 13 -95 0 -120 -6 -11 -21 -19 -35 -19 -31 0 -45 26 -45 87 0
52 6 67 30 75 21 7 39 -1 50 -23z"/>
<path d="M1854 1347 c-3 -9 -4 -28 -2 -44 2 -20 8 -28 23 -28 17 0 20 7 20 40
0 30 -4 41 -18 43 -9 2 -20 -3 -23 -11z m36 -32 c0 -24 -5 -35 -15 -35 -10 0
-15 11 -15 35 0 24 5 35 15 35 10 0 15 -11 15 -35z"/>
<path d="M1954 1318 c1 -35 4 -43 20 -43 11 0 20 6 22 13 1 7 0 8 -3 2 -12
-25 -32 -8 -36 30 l-4 40 1 -42z"/>
<path d="M2055 1350 c-3 -6 1 -7 9 -4 18 7 21 14 7 14 -6 0 -13 -4 -16 -10z"/>
<path d="M2207 1352 c6 -4 13 -25 15 -47 l3 -40 5 48 c5 42 3 47 -15 47 -13 0
-16 -3 -8 -8z"/>
<path d="M2384 1346 c-3 -8 -4 -27 -2 -43 2 -21 9 -28 26 -29 18 -1 19 -1 2 3
-15 3 -20 12 -20 40 0 30 3 35 20 30 11 -3 18 -1 14 4 -8 14 -34 11 -40 -5z"/>
<path d="M2630 1315 c0 -27 2 -46 5 -44 7 8 9 78 2 85 -4 4 -7 -14 -7 -41z"/>
<path d="M2668 1325 c-2 -19 0 -41 4 -48 4 -7 8 9 8 36 0 55 -6 62 -12 12z"/>
<path d="M2730 1315 c0 -40 2 -45 23 -44 16 1 18 2 5 6 -13 3 -18 14 -18 38 0
24 5 35 18 38 13 4 11 5 -5 6 -21 1 -23 -4 -23 -44z"/>
<path d="M2998 1353 c7 -3 16 -2 19 1 4 3 -2 6 -13 5 -11 0 -14 -3 -6 -6z"/>
<path d="M3080 1356 c0 -2 9 -6 20 -9 11 -3 18 -1 14 4 -5 9 -34 13 -34 5z"/>
<path d="M3170 1315 c0 -40 2 -45 23 -44 16 1 18 2 5 6 -13 3 -18 14 -18 38 0
24 5 35 18 38 13 4 11 5 -5 6 -21 1 -23 -4 -23 -44z"/>
<path d="M2091 1334 c0 -11 3 -14 6 -6 3 7 2 16 -1 19 -3 4 -6 -2 -5 -13z"/>
<path d="M2300 1340 c0 -5 5 -10 10 -10 6 0 10 5 10 10 0 6 -4 10 -10 10 -5 0
-10 -4 -10 -10z"/>
<path d="M2573 1310 c0 -25 2 -35 4 -22 2 12 2 32 0 45 -2 12 -4 2 -4 -23z"/>
<path d="M1784 1316 c-3 -8 -4 -23 -2 -33 3 -11 6 -6 9 15 6 34 2 42 -7 18z"/>
<path d="M2898 1313 c6 -2 18 -2 25 0 6 3 1 5 -13 5 -14 0 -19 -2 -12 -5z"/>
<path d="M3105 1310 c-3 -5 -2 -18 4 -27 7 -14 9 -12 8 10 -2 30 -3 31 -12 17z"/>
<path d="M2080 1290 c6 -11 13 -20 16 -20 2 0 0 9 -6 20 -6 11 -13 20 -16 20
-2 0 0 -9 6 -20z"/>
<path d="M2290 1294 c0 -7 8 -10 20 -7 11 3 20 8 20 12 0 4 -9 7 -20 7 -11 0
-20 -6 -20 -12z"/>
<path d="M2498 1273 c7 -3 16 -2 19 1 4 3 -2 6 -13 5 -11 0 -14 -3 -6 -6z"/>
<path d="M2998 1273 c6 -2 18 -2 25 0 6 3 1 5 -13 5 -14 0 -19 -2 -12 -5z"/>
</g>
</svg>
